<svg width="16" height="16" viewBox="0 0 16 16" fill="none" xmlns="http://www.w3.org/2000/svg">
<path d="M3.17454 9.90558L2.52758 13.6778C2.43515 14.2168 2.65671 14.7616 3.09916 15.0831C3.34946 15.265 3.64592 15.3575 3.94383 15.3575C4.17257 15.3575 4.40208 15.303 4.61234 15.1925L7.99993 13.4115L11.3876 15.1925C11.5978 15.303 11.8274 15.3575 12.0561 15.3575H12.06C12.8527 15.3566 13.495 14.7136 13.495 13.9207C13.495 13.8103 13.4825 13.703 13.4591 13.5997L12.8254 9.90558L15.566 7.23411C15.9576 6.85239 16.0986 6.28139 15.9297 5.76116C15.7607 5.24102 15.3111 4.86188 14.7698 4.78324L10.9824 4.23293L9.28849 0.800991C9.04634 0.310549 8.54689 0 7.99993 0C7.45298 0 6.95353 0.310549 6.71147 0.800895L5.01772 4.23293L1.23021 4.78324C0.689002 4.86188 0.239367 5.24102 0.0703944 5.76116C-0.0986738 6.28129 0.0423294 6.85229 0.433916 7.23411L3.17454 9.90558ZM6.1785 6.9681C6.64653 6.90009 7.05104 6.60611 7.26034 6.18215L7.99993 4.68343L8.73962 6.18215C8.94892 6.60621 9.35353 6.90019 9.82146 6.9681L11.4754 7.20844L10.2786 8.37506C9.93995 8.70515 9.78545 9.18074 9.86534 9.64685L10.1479 11.294L8.66864 10.5163C8.45934 10.4063 8.22964 10.3513 8.00003 10.3513C7.77042 10.3513 7.54072 10.4063 7.33142 10.5163L5.85224 11.294L6.13472 9.64685C6.21461 9.18074 6.0601 8.70515 5.72149 8.37506L4.5247 7.20844L6.1785 6.9681Z" fill="#FFD953"/>
</svg>
