<svg width="16" height="16" viewBox="0 0 16 16" fill="none" xmlns="http://www.w3.org/2000/svg">
<path d="M12.8254 9.90573L15.5661 7.23422C15.9577 6.85249 16.0987 6.28148 15.9296 5.76124C15.7606 5.2411 15.311 4.86196 14.7698 4.78332L10.9823 4.233L9.28844 0.801003C9.04638 0.310554 8.54683 0 7.99996 0C7.45309 0 6.95354 0.310554 6.71148 0.800907L5.0177 4.233L1.23023 4.78332C0.689013 4.86196 0.239371 5.2411 0.0703957 5.76124C-0.0986751 6.28139 0.042329 6.8524 0.433922 7.23422L3.17459 9.90573L2.52762 13.678C2.43518 14.217 2.65675 14.7618 3.09921 15.0833C3.34951 15.2652 3.64598 15.3578 3.94389 15.3578C4.17264 15.3578 4.40215 15.3033 4.61241 15.1927L7.99996 13.4117L11.3876 15.1927C11.5992 15.304 11.828 15.3558 12.0604 15.3578C12.8529 15.3565 13.495 14.7137 13.495 13.9209C13.495 13.8105 13.4825 13.7031 13.459 13.5999L12.8254 9.90573ZM10.2786 8.37518C9.94001 8.70528 9.7855 9.18088 9.86539 9.647L10.148 11.2942L8.66868 10.5165C8.45937 10.4064 8.22967 10.3514 8.00006 10.3514C7.77035 10.3514 7.54074 10.4064 7.33144 10.5165L5.85223 11.2942L6.13472 9.647C6.21471 9.18088 6.0601 8.70528 5.72148 8.37518L4.52467 7.20855L6.17859 6.96821C6.64663 6.9002 7.05115 6.60621 7.26046 6.18215L8.00006 4.6834L8.73975 6.18215C8.94906 6.60621 9.35368 6.9002 9.82161 6.96821L11.4755 7.20855L10.2786 8.37518Z" fill="#FFD953"/>
</svg>
