<svg width="16" height="16" viewBox="0 0 16 16" fill="none" xmlns="http://www.w3.org/2000/svg">
<path d="M7.73375 3.75276L8.00065 4.10951L8.26756 3.75276C8.88093 2.93289 9.86392 2.39974 10.9607 2.39974C12.8217 2.39974 14.334 3.91561 14.334 5.79307C14.334 6.55015 14.2132 7.2489 14.0035 7.89713L14.0028 7.8993C13.5 9.49044 12.4697 10.7728 11.3576 11.7286C10.244 12.6856 9.06759 13.2986 8.30661 13.5575L8.30661 13.5575L8.30304 13.5587C8.23648 13.5822 8.12682 13.5997 8.00065 13.5997C7.87448 13.5997 7.76482 13.5822 7.69826 13.5587L7.69827 13.5587L7.69469 13.5575C6.93371 13.2986 5.75732 12.6856 4.64375 11.7286C3.53165 10.7728 2.50129 9.49044 1.99849 7.8993L1.9985 7.8993L1.9978 7.89713C1.78808 7.24891 1.66732 6.55015 1.66732 5.79307C1.66732 3.91561 3.17964 2.39974 5.04065 2.39974C6.13738 2.39974 7.12037 2.93289 7.73375 3.75276Z" fill="#EF4444" stroke="#EF4444" stroke-width="0.666667"/>
</svg>
