<svg width="54" height="48" viewBox="0 0 54 48" fill="none" xmlns="http://www.w3.org/2000/svg">
<path d="M18.259 38.9508C18.696 38.5137 19.156 37.8007 20.559 37.8007C21.9621 37.8007 36.4064 37.8007 37.8094 37.8007C39.0859 37.8007 46.1126 30.7511 47.0096 29.7506C47.8721 28.7845 51.7017 23.0344 52.7597 20.5504C52.0927 19.6533 50.2871 18.9058 48.1596 19.4003C46.1241 19.8719 44.928 21.3324 43.5595 24.0004L38.2924 26.7375" stroke="white" stroke-width="2" stroke-miterlimit="10" stroke-linejoin="round"/>
<path d="M25.1584 30.9008C25.1584 30.9008 34.3586 30.9008 35.5086 30.9008C40.1087 30.9008 40.1087 25.1506 35.5086 25.1506C34.3586 25.1506 31.4835 25.1506 28.2865 25.1506C27.3319 25.1506 25.5264 22.8506 24.0084 22.8506C23.3298 22.8506 19.8108 22.8506 18.2582 22.8506C16.7057 22.8506 14.7737 24.1156 13.6581 25.1506C11.9331 26.8757 9.05804 29.7507 9.05804 29.7507" stroke="white" stroke-width="2" stroke-miterlimit="10" stroke-linejoin="round"/>
<path d="M6.7492 27.451L1 33.2002L14.7997 46.9999L20.5489 41.2507L6.7492 27.451Z" stroke="white" stroke-width="2" stroke-miterlimit="10" stroke-linejoin="round"/>
<path d="M6.758 33.2007L9.05804 35.5007" stroke="white" stroke-width="2" stroke-miterlimit="10" stroke-linejoin="round"/>
<path d="M49.3087 19.4004V1H17.1081V22.8505" stroke="white" stroke-width="2" stroke-miterlimit="10"/>
<path d="M37.8083 1V5.6001H28.6082V1" stroke="white" stroke-width="2" stroke-miterlimit="10"/>
<path d="M20.5581 18.2505H22.8582" stroke="white" stroke-width="2" stroke-miterlimit="10"/>
<path d="M24.0081 18.2505H26.3082" stroke="white" stroke-width="2" stroke-miterlimit="10"/>
<path d="M27.4581 18.2505H29.7582" stroke="white" stroke-width="2" stroke-miterlimit="10"/>
</svg>
