<svg width="23" height="32" viewBox="0 0 23 32" fill="none" xmlns="http://www.w3.org/2000/svg">
<path d="M18.5957 7.53617H13.7021V4.40426C13.7021 1.97575 11.7264 0 9.29787 0C6.86937 0 4.89362 1.97575 4.89362 4.40426V12.4298H4.40426C1.97575 12.4298 0 14.4055 0 16.834V19.7543C0 20.9573 0.617477 22.4479 1.46809 23.2985L2.93617 24.7666V30.5202C2.93617 31.331 3.59348 31.9883 4.40426 31.9883H21.5319C22.3427 31.9883 23 31.331 23 30.5202V11.9404C23 9.51192 21.0243 7.53617 18.5957 7.53617ZM2.93617 16.834C2.93617 16.0245 3.59475 15.366 4.40426 15.366H6.3617C7.17248 15.366 7.82979 14.7086 7.82979 13.8979V4.40426C7.82979 3.59475 8.48837 2.93617 9.29787 2.93617C10.1074 2.93617 10.766 3.59475 10.766 4.40426V9.00426C10.766 9.81503 11.4233 10.4723 12.234 10.4723H18.5957C19.4052 10.4723 20.0638 11.1309 20.0638 11.9404V22.6904H5.01234L3.54425 21.2223C3.24877 20.9269 2.93617 20.1723 2.93617 19.7543V16.834ZM5.87234 29.0521V25.6266H20.0638V29.0521H5.87234Z" fill="#474340"/>
</svg>
