<svg width="102" height="110" viewBox="0 0 102 110" fill="none" xmlns="http://www.w3.org/2000/svg">
<path d="M72.0234 51.7773C71.393 51.7773 70.7678 51.7999 70.1471 51.8394L68.5859 25.8887H55.5498V19.2633C55.5498 8.64145 46.9083 0 36.2865 0C25.6648 0 17.0234 8.64145 17.0234 19.2633V25.8887H3.97439L0 97.0557H47.8259C53.0542 104.855 61.9489 110 72.0234 110C88.0754 110 101.135 96.9407 101.135 80.8887C101.135 64.8366 88.0754 51.7773 72.0234 51.7773ZM23.4687 19.2633C23.4687 12.1956 29.2188 6.44531 36.2865 6.44531C43.3542 6.44531 49.1045 12.1954 49.1045 19.2633V25.8887H23.4687V19.2633ZM33.1903 45.9239L36.4399 48.0814V58.2497H29.9408V48.0814L33.1903 45.9239ZM6.81527 90.6104L10.0697 32.334H17.0234V42.0557H23.4687V32.334H29.9677V40.327L23.4955 44.6239V64.6948H42.8852V44.6239L36.413 40.327V32.334H49.1045V42.0557H55.5498V32.334H62.5165L63.7583 52.9745C51.7196 56.5452 42.912 67.7069 42.912 80.8887C42.912 84.2965 43.5026 87.5686 44.5835 90.6104H6.81527ZM72.0234 103.555C59.5253 103.555 49.3573 93.3868 49.3573 80.8887C49.3573 68.3906 59.5253 58.2227 72.0234 58.2227C84.5215 58.2227 94.6894 68.3906 94.6894 80.8887C94.6894 93.3868 84.5215 103.555 72.0234 103.555Z" fill="#33302E"/>
<path d="M69.5328 82.109L62.5804 75.1564L58.0229 79.7139L69.5328 91.224L86.024 74.7328L81.4665 70.1753L69.5328 82.109Z" fill="#33302E"/>
</svg>
