<svg width="16" height="16" viewBox="0 0 16 16" fill="none" xmlns="http://www.w3.org/2000/svg">
<path d="M15.9296 5.7612C15.7606 5.24106 15.311 4.86192 14.7698 4.78328L10.9823 4.23296L9.28848 0.800901C9.04642 0.310456 8.54687 0 8.00001 0C7.45304 0 6.95359 0.310551 6.71153 0.800997L5.01777 4.23296L1.23022 4.78328C0.689009 4.86192 0.23937 5.24106 0.0703956 5.7612C-0.0986742 6.28134 0.0423275 6.85234 0.433918 7.23416L3.17457 9.90565L2.52761 13.6779C2.43517 14.2169 2.65673 14.7617 3.09919 15.0832C3.34949 15.2651 3.64596 15.3576 3.94386 15.3576C4.17261 15.3576 4.40213 15.3031 4.61238 15.1926L7.99991 13.4116L11.3876 15.1926C11.599 15.3037 11.8313 15.3545 12.06 15.3576C12.8527 15.3567 13.495 14.7137 13.495 13.9208C13.495 13.8104 13.4826 13.7031 13.4591 13.5998L12.8254 9.90565L15.5661 7.23416C15.9577 6.85244 16.0987 6.28144 15.9296 5.7612ZM10.2786 8.37512C9.93995 8.70521 9.78544 9.18081 9.86533 9.64692L10.1479 11.2941L8.66862 10.5164C8.45932 10.4063 8.22961 10.3514 8.00001 10.3514C7.7704 10.3514 7.54069 10.4063 7.33139 10.5164L5.8522 11.2941L6.13468 9.64692C6.21467 9.18081 6.06006 8.70521 5.72144 8.37512L4.52464 7.20849L6.17865 6.96816C6.64659 6.90014 7.05121 6.60616 7.26051 6.1821L8.0001 4.68347L8.7397 6.1822C8.949 6.60626 9.35362 6.90024 9.82156 6.96825L11.4755 7.20859L10.2786 8.37512Z" fill="#FFD953"/>
</svg>
